# xmcd
#
# Track frame offsets: 
#        150
#        20477
#        50222
#        72305
#        127350
#        151255
#        164895
#        190940
#
# Disc length: 2867 seconds
#
# Revision: 0
# Processed by: cddbd v1.5.2PL0 Copyright (c) Steve Scherf et al.
# Submitted via: ExactAudioCopy v0.99pb4
#
DISCID=7b0b3108
DTITLE=Steve Johnson - Nuts and Bolts
DYEAR=1900
DGENRE=Blues
TTITLE0=Katie
TTITLE1=Black Crow
TTITLE2=Lil 'Sis
TTITLE3=Old and Tired
TTITLE4=Mean Old Christmas
TTITLE5=Out in the Cold
TTITLE6=New Tune Blues
TTITLE7=Angry Woman Blues
EXTD=
EXTT0=
EXTT1=
EXTT2=
EXTT3=
EXTT4=
EXTT5=
EXTT6=
EXTT7=
PLAYORDER=
